<svg width="46" height="38" viewBox="0 0 46 38" fill="none" xmlns="http://www.w3.org/2000/svg">
<g id="Icon/Connector/AC">
<path id="Combined Shape" fill-rule="evenodd" clip-rule="evenodd" d="M25.7674 30.9205C31.5642 30.0198 35.5581 26.6815 37.4187 21.1555C39.2897 15.5984 38.0318 10.5528 34.0311 6.23819C33.8154 6.00689 33.3951 5.84824 33.0704 5.84676C26.7118 5.82452 20.3524 5.826 13.9923 5.84379C13.7225 5.84527 13.3822 5.99058 13.1932 6.18555C10.4149 9.04269 9.0013 12.4707 9.01093 16.4621C9.01093 16.627 9.00571 16.7922 9.00049 16.9574C8.98937 17.3092 8.97826 17.6607 9.0176 18.0078C9.95235 26.3783 17.4503 32.2119 25.7674 30.9205ZM35.782 2.37504C36.3446 2.37207 36.7442 2.53295 37.1259 2.94143C42.2896 8.44813 44.0472 14.8786 41.83 22.097C39.624 29.2821 34.6219 33.7398 27.25 35.2374C16.6764 37.3836 6.53508 30.3986 4.72934 19.7099C3.63522 13.2268 5.53585 7.55111 10.1777 2.8495C10.4371 2.58558 10.913 2.40914 11.2903 2.40618C14.4757 2.38311 17.662 2.38516 20.8485 2.38721C21.759 2.3878 22.6694 2.38838 23.5799 2.38838C24.4837 2.38838 25.3877 2.38882 26.2916 2.38926C29.4557 2.3908 32.6202 2.39234 35.782 2.37504ZM30.762 9.67263C30.535 11.2488 28.6297 12.2225 26.9964 11.7592C25.2733 11.2708 24.3716 9.54578 24.9949 7.98636C25.23 7.40148 25.5468 7.0498 26.2817 7.13867C26.641 7.18186 27.0085 7.17136 27.3758 7.16086C27.5381 7.15622 27.7004 7.15158 27.862 7.15158C27.9507 7.15158 28.0399 7.14873 28.1291 7.14587C28.3201 7.13976 28.5115 7.13364 28.6995 7.15538C28.856 7.17443 29.0387 7.18274 29.2238 7.19117H29.2238C29.6955 7.21263 30.1828 7.2348 30.2911 7.43718C30.6513 8.09194 30.8663 8.94799 30.762 9.67263ZM12.5888 16.6481C12.603 17.375 13.2115 17.9622 13.9719 17.979C14.7764 17.9951 15.4253 17.4035 15.4395 16.6437C15.4522 15.8854 14.8108 15.2689 14.0115 15.2704C13.2123 15.2704 12.5716 15.889 12.5888 16.6481ZM13.9898 13.0627C15.9906 13.0436 17.6391 14.7036 17.6077 16.7066C17.5778 18.613 15.927 20.2013 13.9928 20.1874C12.0153 20.1706 10.4041 18.5457 10.4191 16.5837C10.434 14.6685 12.043 13.0802 13.9898 13.0627ZM27.0243 24.9385C27.0243 25.751 27.588 26.3017 28.413 26.2929C29.2298 26.2827 29.7773 25.7159 29.7573 24.8946C29.7396 24.1195 29.1988 23.5936 28.413 23.5834C27.588 23.5739 27.0243 24.1253 27.0243 24.9385ZM24.7975 24.9188C24.8115 23.0525 26.4554 21.4107 28.3451 21.3756C30.2406 21.339 31.965 23.0166 31.9864 24.9129C32.0048 26.8019 30.307 28.4971 28.3953 28.5C26.4864 28.5015 24.782 26.8063 24.7975 24.9188ZM18.7884 26.2929C17.9913 26.2842 17.3534 25.6538 17.3811 24.8998C17.4058 24.1685 18.0197 23.5945 18.7824 23.5842C19.5833 23.574 20.2309 24.1773 20.2368 24.9357C20.2413 25.686 19.5878 26.301 18.7884 26.2929ZM18.7555 21.3757C16.8023 21.4152 15.217 23.0029 15.2118 24.9218C15.2058 26.8816 16.8412 28.5058 18.8131 28.5C20.7887 28.4941 22.4121 26.8692 22.4009 24.9101C22.3904 22.959 20.7147 21.3355 18.7555 21.3757ZM17.4986 11.1508C18.4463 11.9363 19.5426 12.1063 20.6939 11.545C21.824 10.9973 22.4103 10.0914 22.4008 8.89428C22.393 7.61292 21.8633 7.15545 20.5548 7.15545C20.2925 7.15495 20.0305 7.15512 19.7692 7.15528H19.769H19.7689H19.7682L19.3768 7.15545C19.2355 7.15545 19.0935 7.16018 18.9514 7.16491C18.6368 7.17539 18.3224 7.18587 18.0164 7.14492C17.1347 7.02453 16.7716 7.45943 16.5484 8.19228C16.1799 9.39539 16.5641 10.3743 17.4986 11.1508ZM22.2335 16.5586C22.2033 17.381 22.7404 17.9585 23.5528 17.9797C24.3799 17.9987 24.9539 17.4592 24.965 16.6507C24.9768 15.8656 24.4603 15.3107 23.6893 15.272C22.8592 15.2318 22.2631 15.7596 22.2335 16.5586ZM23.5358 13.0636C25.4276 13.0139 27.1593 14.6806 27.1932 16.5835C27.2279 18.4622 25.5338 20.1691 23.6199 20.1874C21.7156 20.2035 20.0046 18.5163 20.0046 16.6244C20.0046 14.7647 21.6411 13.1155 23.5358 13.0636ZM34.5521 16.583C34.5698 17.4024 34.0245 17.9689 33.2061 17.9784C32.3811 17.9872 31.8181 17.4368 31.8195 16.6232C31.8195 15.8419 32.3442 15.2958 33.122 15.2703C33.9514 15.2425 34.5322 15.7768 34.5521 16.583ZM29.5902 16.6115C29.5784 18.4689 31.2085 20.123 33.1072 20.1859C34.9964 20.2466 36.7342 18.5858 36.7785 16.6788C36.8228 14.8046 35.1358 13.0906 33.2179 13.0628C31.3192 13.0372 29.5998 14.7169 29.5902 16.6115Z" fill="#374151"/>
</g>
</svg>
