<svg width="34" height="44" viewBox="0 0 34 44" fill="none" xmlns="http://www.w3.org/2000/svg">
<g id="Atoms/Connectors" clip-path="url(#clip0_5707_295)">
<path id="Vector" d="M11.5583 6.94731C11.5583 6.60381 11.662 6.26803 11.8561 5.98243C12.0503 5.69684 12.3262 5.47425 12.6491 5.34282C12.9719 5.2114 13.3272 5.17703 13.6699 5.24406C14.0126 5.3111 14.3274 5.47653 14.5745 5.71944C14.8216 5.96234 14.9898 6.27182 15.058 6.60873C15.1261 6.94563 15.0911 7.29484 14.9574 7.61219C14.8237 7.92955 14.5972 8.20079 14.3067 8.39163C14.0161 8.58246 13.6745 8.68432 13.3251 8.68432C12.8584 8.67832 12.4125 8.49341 12.0825 8.16899C11.7525 7.84456 11.5644 7.40608 11.5583 6.94731ZM20.5809 8.68451C20.9303 8.68451 21.2719 8.58265 21.5625 8.3918C21.853 8.20096 22.0795 7.9297 22.2132 7.61234C22.3469 7.29497 22.3819 6.94575 22.3137 6.60884C22.2456 6.27193 22.0773 5.96246 21.8302 5.71956C21.5831 5.47666 21.2683 5.31124 20.9255 5.24423C20.5828 5.17721 20.2276 5.21161 19.9047 5.34306C19.5819 5.47452 19.3059 5.69713 19.1118 5.98275C18.9177 6.26837 18.814 6.60417 18.814 6.94768C18.8201 7.40645 19.0082 7.84474 19.3383 8.16917C19.6683 8.4936 20.1142 8.67851 20.5809 8.68451ZM17.0001 15.5392C17.466 15.5392 17.9215 15.4034 18.3089 15.1489C18.6963 14.8944 18.9982 14.5328 19.1765 14.1096C19.3548 13.6865 19.4015 13.2208 19.3106 12.7716C19.2197 12.3224 18.9953 11.9098 18.6659 11.5859C18.3364 11.2621 17.9167 11.0415 17.4597 10.9521C17.0027 10.8628 16.529 10.9087 16.0986 11.0839C15.6681 11.2592 15.3002 11.556 15.0413 11.9368C14.7825 12.3177 14.6443 12.7654 14.6443 13.2234C14.6443 13.8376 14.8925 14.4266 15.3343 14.8609C15.7761 15.2952 16.3753 15.5392 17.0001 15.5392ZM9.57942 15.5392C10.0453 15.5392 10.5008 15.4034 10.8882 15.1489C11.2756 14.8944 11.5776 14.5328 11.7559 14.1096C11.9342 13.6865 11.9808 13.2208 11.8899 12.7716C11.799 12.3224 11.5747 11.9098 11.2452 11.5859C10.9157 11.2621 10.496 11.0415 10.039 10.9521C9.58203 10.8628 9.10836 10.9087 8.6779 11.0839C8.24744 11.2592 7.87952 11.556 7.62066 11.9368C7.36181 12.3177 7.22365 12.7654 7.22365 13.2234C7.22365 13.8376 7.47184 14.4266 7.91363 14.8609C8.35543 15.2952 8.95463 15.5392 9.57942 15.5392ZM24.4208 15.5392C24.8867 15.5392 25.3422 15.4034 25.7296 15.1489C26.117 14.8944 26.4189 14.5328 26.5972 14.1096C26.7755 13.6865 26.8222 13.2208 26.7313 12.7716C26.6404 12.3224 26.416 11.9098 26.0865 11.5859C25.7571 11.2621 25.3373 11.0415 24.8804 10.9521C24.4234 10.8628 23.9497 10.9087 23.5192 11.0839C23.0888 11.2592 22.7209 11.556 22.462 11.9368C22.2032 12.3177 22.065 12.7654 22.065 13.2234C22.065 13.8376 22.3132 14.4266 22.755 14.8609C23.1968 15.2952 23.796 15.5392 24.4208 15.5392ZM13.278 17.3223C12.812 17.3223 12.3566 17.4581 11.9692 17.7126C11.5818 17.9671 11.2798 18.3287 11.1015 18.7519C10.9232 19.175 10.8766 19.6407 10.9675 20.0899C11.0584 20.5391 11.2827 20.9517 11.6122 21.2756C11.9417 21.5995 12.3614 21.82 12.8184 21.9094C13.2754 21.9987 13.749 21.9529 14.1795 21.7776C14.6099 21.6023 14.9779 21.3055 15.2367 20.9247C15.4956 20.5438 15.6337 20.0961 15.6337 19.6381C15.6337 19.0239 15.3855 18.4349 14.9438 18.0006C14.502 17.5663 13.9028 17.3223 13.278 17.3223ZM20.7222 17.3223C20.2563 17.3223 19.8008 17.4581 19.4134 17.7126C19.026 17.9671 18.7241 18.3287 18.5458 18.7519C18.3675 19.175 18.3208 19.6407 18.4117 20.0899C18.5026 20.5391 18.727 20.9517 19.0564 21.2756C19.3859 21.5995 19.8056 21.82 20.2626 21.9094C20.7196 21.9987 21.1933 21.9529 21.6237 21.7776C22.0542 21.6023 22.4221 21.3055 22.681 20.9247C22.9398 20.5438 23.078 20.0961 23.078 19.6381C23.078 19.0239 22.8298 18.4349 22.388 18.0006C21.9462 17.5663 21.347 17.3223 20.7222 17.3223ZM14.6443 34.7369C14.6443 35.4239 14.4371 36.0955 14.0488 36.6668C13.6605 37.238 13.1086 37.6833 12.4629 37.9462C11.8172 38.2091 11.1067 38.2779 10.4213 38.1438C9.73582 38.0098 9.10618 37.679 8.61199 37.1932C8.1178 36.7074 7.78126 36.0884 7.64491 35.4146C7.50856 34.7408 7.57854 34.0423 7.846 33.4076C8.11345 32.7729 8.56637 32.2304 9.14747 31.8487C9.72858 31.467 10.4118 31.2633 11.1107 31.2633C12.0478 31.2633 12.9466 31.6292 13.6093 32.2807C14.272 32.9321 14.6443 33.8157 14.6443 34.7369ZM12.2886 34.7369C12.2886 34.5079 12.2195 34.284 12.09 34.0936C11.9606 33.9032 11.7767 33.7548 11.5614 33.6672C11.3462 33.5795 11.1094 33.5566 10.8809 33.6013C10.6524 33.646 10.4425 33.7562 10.2778 33.9182C10.113 34.0801 10.0009 34.2864 9.95541 34.511C9.90996 34.7356 9.93329 34.9684 10.0224 35.18C10.1116 35.3916 10.2626 35.5724 10.4563 35.6997C10.65 35.8269 10.8777 35.8948 11.1107 35.8948C11.4231 35.8948 11.7227 35.7728 11.9436 35.5557C12.1645 35.3385 12.2886 35.044 12.2886 34.7369ZM26.4232 34.7369C26.4232 35.4239 26.2159 36.0955 25.8276 36.6668C25.4394 37.238 24.8875 37.6833 24.2418 37.9462C23.5961 38.2091 22.8856 38.2779 22.2001 38.1438C21.5147 38.0098 20.885 37.679 20.3908 37.1932C19.8967 36.7074 19.5601 36.0884 19.4238 35.4146C19.2874 34.7408 19.3574 34.0423 19.6248 33.4076C19.8923 32.7729 20.3452 32.2304 20.9263 31.8487C21.5074 31.467 22.1906 31.2633 22.8895 31.2633C23.8266 31.2633 24.7254 31.6292 25.388 32.2805C26.0507 32.9319 26.4231 33.8157 26.4232 34.7369ZM24.0674 34.7369C24.0674 34.5079 23.9983 34.284 23.8689 34.0936C23.7395 33.9032 23.5555 33.7548 23.3403 33.6672C23.125 33.5795 22.8882 33.5566 22.6597 33.6013C22.4312 33.646 22.2214 33.7562 22.0566 33.9182C21.8919 34.0801 21.7797 34.2864 21.7343 34.511C21.6888 34.7356 21.7121 34.9684 21.8013 35.18C21.8904 35.3916 22.0414 35.5724 22.2351 35.6997C22.4288 35.8269 22.6565 35.8948 22.8895 35.8948C23.2019 35.8948 23.5015 35.7728 23.7224 35.5557C23.9433 35.3385 24.0674 35.044 24.0674 34.7369ZM33.4905 34.7369C33.4905 37.1936 32.4977 39.5497 30.7305 41.2869C28.9633 43.0241 26.5666 44 24.0674 44H9.93278C7.6645 44 5.47234 43.1957 3.75876 41.7347C2.04519 40.2738 0.925193 38.2543 0.604411 36.0469C0.283628 33.8396 0.783583 31.5925 2.01249 29.7184C3.24139 27.8442 5.11677 26.4687 7.29432 25.8444C3.80443 23.3506 1.44778 19.6115 0.729919 15.4294C0.0120578 11.2472 0.990163 6.95508 3.45442 3.47365C4.39436 2.16415 5.52095 0.994298 6.79961 0H27.2006C28.4792 0.994298 29.6058 2.16415 30.5458 3.47365C33.0099 6.95505 33.9879 11.2471 33.2701 15.4292C32.5522 19.6112 30.1956 23.3502 26.7059 25.844C28.6632 26.4052 30.3825 27.5753 31.6059 29.1787C32.8292 30.7821 33.4905 32.7327 33.4905 34.7369ZM17.0001 25.4738C20.4364 25.4738 23.732 24.1319 26.1619 21.7433C28.5917 19.3547 29.9568 16.1151 29.9568 12.7371C29.9615 10.1312 29.1379 7.58893 27.601 5.46559C27.0987 4.73874 26.5139 4.07046 25.8578 3.47365H8.11884C7.46209 4.0763 6.87004 4.74366 6.35201 5.46522C5.00032 7.37606 4.20709 9.61445 4.05848 11.9373C3.90986 14.2601 4.41155 16.5786 5.50906 18.6408C6.60656 20.7031 8.25791 22.4303 10.2838 23.6349C12.3096 24.8395 14.6325 25.4757 17.0001 25.4738ZM29.9568 34.7369C29.9568 33.2015 29.3363 31.7289 28.2318 30.6432C27.1274 29.5574 25.6294 28.9475 24.0674 28.9475H9.93278C8.37081 28.9475 6.87281 29.5574 5.76833 30.6432C4.66385 31.7289 4.04336 33.2015 4.04336 34.7369C4.04336 36.2724 4.66385 37.7449 5.76833 38.8307C6.87281 39.9164 8.37081 40.5263 9.93278 40.5263H24.0674C24.8408 40.5263 25.6066 40.3766 26.3212 40.0857C27.0357 39.7947 27.685 39.3683 28.2318 38.8307C28.7787 38.2931 29.2125 37.6548 29.5085 36.9524C29.8045 36.25 29.9568 35.4972 29.9568 34.7369Z" fill="#374151"/>
</g>
<defs>
<clipPath id="clip0_5707_295">
<rect width="33" height="44" fill="white" transform="translate(0.5)"/>
</clipPath>
</defs>
</svg>
