<svg width="38" height="38" viewBox="0 0 38 38" fill="none" xmlns="http://www.w3.org/2000/svg">
<g id="Atoms/Connectors" clip-path="url(#clip0_5707_299)">
<path id="Vector" d="M11.4 16.15C12.977 16.15 14.25 17.423 14.25 19C14.25 20.577 12.977 21.85 11.4 21.85C9.823 21.85 8.55 20.577 8.55 19C8.55 17.423 9.823 16.15 11.4 16.15ZM11.4 13.3C8.246 13.3 5.7 15.846 5.7 19C5.7 22.154 8.246 24.7 11.4 24.7C14.554 24.7 17.1 22.154 17.1 19C17.1 15.846 14.554 13.3 11.4 13.3ZM26.6 16.15C28.177 16.15 29.45 17.423 29.45 19C29.45 20.577 28.177 21.85 26.6 21.85C25.023 21.85 23.75 20.577 23.75 19C23.75 17.423 25.023 16.15 26.6 16.15ZM26.6 13.3C23.446 13.3 20.9 15.846 20.9 19C20.9 22.154 23.446 24.7 26.6 24.7C29.754 24.7 32.3 22.154 32.3 19C32.3 15.846 29.754 13.3 26.6 13.3ZM23.028 12.179L20.349 9.5L23.028 6.821L21.679 5.472L19 8.151L16.321 5.472L14.972 6.821L17.651 9.5L14.972 12.179L16.321 13.528L19 10.849L21.679 13.528L23.028 12.179ZM23.028 31.179L20.349 28.5L23.028 25.821L21.679 24.472L19 27.151L16.321 24.472L14.972 25.821L17.651 28.5L14.972 31.179L16.321 32.528L19 29.849L21.679 32.528L23.028 31.179ZM33.706 6.973L35.15 5.567L32.433 2.85L31.027 4.294C27.74 1.615 23.56 0 19 0C14.44 0 10.26 1.615 6.973 4.294L5.567 2.85L2.85 5.567L4.294 6.973C1.615 10.26 0 14.44 0 19C0 29.45 8.55 38 19 38C29.45 38 38 29.45 38 19C38 14.44 36.385 10.26 33.706 6.973ZM19 34.2C10.621 34.2 3.8 27.379 3.8 19C3.8 10.621 10.621 3.8 19 3.8C27.379 3.8 34.2 10.621 34.2 19C34.2 27.379 27.379 34.2 19 34.2Z" fill="#374151"/>
</g>
<defs>
<clipPath id="clip0_5707_299">
<rect width="38" height="38" fill="white"/>
</clipPath>
</defs>
</svg>
