<svg width="184" height="24" viewBox="0 0 184 24" fill="none" xmlns="http://www.w3.org/2000/svg">
<g id="Brand/Logo/Fastned-horizontal" clip-path="url(#clip0_5707_355)">
<path id="Vector" d="M85.7363 3.83391V0.0751953H70.3967V23.5229H74.693V14.1556H82.9883V10.3969H74.693V3.83391H85.7363Z" fill="#1F2937"/>
<path id="Vector_2" d="M92.1134 6.26855C87.8766 6.26855 85.6879 8.6707 85.6663 8.69483L85.6339 8.73236V12.2498H85.977C85.9932 12.2257 88.0711 9.86909 91.6352 9.86909C94.0832 9.86909 95.3829 11.0192 95.3964 13.1962C94.9236 13.1854 93.2618 13.1479 90.73 13.1479C86.9174 13.1479 84.3531 15.4509 84.3531 18.8825C84.3531 21.8476 86.766 24.0005 90.0896 24.0005C93.686 24.0005 95.0749 21.7538 95.4127 21.0836L95.5667 23.5232H99.3469V13.0702C99.3469 8.74845 96.7124 6.26855 92.1188 6.26855H92.1134ZM90.8867 20.5608C89.3438 20.5608 88.4602 19.7994 88.4602 18.4696C88.4602 17.1399 89.5816 16.3919 91.3677 16.2203C93.6725 16.0005 94.9398 15.9871 95.364 16.0005C95.183 16.7779 94.1832 20.5608 90.8867 20.5608Z" fill="#1F2937"/>
<path id="Vector_3" d="M126.505 19.1292C126.505 19.1292 125.132 20.4 123.465 20.4C121.968 20.4 121.039 19.3544 121.039 17.6734V10.3437H126.321V6.74314H121.039V0.584961L117.091 2.27397V17.8343C117.091 21.5796 119.28 24.0005 122.665 24.0005C125.251 24.0005 126.699 22.593 126.762 22.5313L126.802 22.4911V19.1265H126.508L126.505 19.1292Z" fill="#1F2937"/>
<path id="Vector_4" d="M138.056 6.26855C134.538 6.26855 133.314 8.59295 132.952 9.21225L132.849 6.74577H129.069V23.5259H133.016V14.5018C133.016 11.9495 134.549 9.87177 137.121 9.87177C139.374 9.87177 140.963 11.1533 140.963 13.3919V23.5286H144.911V13.2337C144.911 8.9388 142.185 6.27392 138.056 6.27392V6.26855Z" fill="#1F2937"/>
<path id="Vector_5" d="M164.15 15.0192C164.15 9.70287 160.894 6.26855 155.855 6.26855C150.815 6.26855 147.078 10.164 147.078 15.1345C147.078 20.105 150.864 24.0005 156.079 24.0005C160.489 24.0005 162.975 22.0889 163.002 22.0702L163.058 22.0299V18.3356H162.74C162.718 18.357 160.391 20.3999 156.495 20.3999C153.317 20.3999 151.283 18.9173 150.888 16.3249H164.153V15.0165L164.15 15.0192ZM160.332 13.2042H151.094C151.345 12.2525 152.907 9.86909 156.014 9.86909C158.665 9.86909 159.981 11.6305 160.332 13.2042Z" fill="#1F2937"/>
<path id="Vector_6" d="M180.053 0.0751953V9.2012C179.886 8.93579 179.483 8.37546 178.791 7.8071C177.935 7.10469 176.454 6.26822 174.265 6.26822C169.612 6.26822 165.97 10.1637 165.97 15.1342C165.97 20.1047 169.615 24.0001 174.265 24.0001C176.454 24.0001 177.935 23.1637 178.791 22.4613C179.499 21.8795 179.905 21.3031 180.064 21.0484L180.221 23.5229H184.001V0.0751953H180.053ZM175.065 20.3996C172.174 20.3996 170.077 18.1851 170.077 15.1342C170.077 12.0832 172.174 9.86876 175.065 9.86876C177.956 9.86876 180.053 12.0832 180.053 15.1342C180.053 18.1851 177.956 20.3996 175.065 20.3996Z" fill="#1F2937"/>
<path id="Vector_7" d="M108.848 13.2415C107.119 12.7965 105.752 12.4426 105.752 11.4801C105.752 10.4104 106.568 9.86616 108.178 9.86616C110.759 9.86616 113.107 11.2898 113.412 11.5096H113.763V7.9305L113.707 7.89029C112.653 7.14766 110.783 6.26562 107.857 6.26562C104.198 6.26562 101.642 8.34337 101.642 11.3219C101.642 15.0351 104.96 15.8662 107.624 16.5364C109.481 17.0029 111.083 17.405 111.083 18.6276C111.083 19.7696 109.994 20.3997 108.016 20.3997C104.901 20.3997 102.347 18.6704 102.325 18.6517H101.961V22.3273L102.023 22.3675C102.988 22.9761 105.028 23.9975 107.857 23.9975C112.485 23.9975 115.033 22.145 115.033 18.783C115.033 14.834 111.602 13.952 108.846 13.2388L108.848 13.2415Z" fill="#1F2937"/>
<path id="Vector_8" d="M59.1969 0.0698241L30.1794 12.5444L1.16189 0.0698241C0.613369 -0.166101 0 0.233363 0 0.825856V6.74275C0 9.82586 1.87253 12.606 4.74213 13.783L27.0882 22.9599C29.0661 23.7722 31.2872 23.7722 33.2652 22.9599L55.6113 13.783C58.4836 12.6033 60.3534 9.82586 60.3534 6.74275V0.825856C60.3534 0.233363 59.74 -0.166101 59.1915 0.0698241H59.1969Z" fill="#1F2937"/>
</g>
<defs>
<clipPath id="clip0_5707_355">
<rect width="184" height="24" fill="white"/>
</clipPath>
</defs>
</svg>
